<svg width="20" height="21" viewBox="0 0 20 21" fill="none" xmlns="http://www.w3.org/2000/svg">
<path d="M10.4999 0.5H9.49667C9.2515 0.5 9.05151 0.700001 9.05151 0.945153V3.44509C9.05151 3.96766 9.4741 4.39025 9.99668 4.39025C10.5192 4.39025 10.9418 3.96766 10.9418 3.44509V0.945153C10.9418 0.699991 10.7418 0.5 10.4967 0.5H10.4999Z" fill="#3F4041"/>
<path d="M16.0065 0.5H15.0033C14.7581 0.5 14.5581 0.700001 14.5581 0.945153V3.44509C14.5581 3.96766 14.9807 4.39025 15.5033 4.39025C16.0258 4.39025 16.4484 3.96766 16.4484 3.44509V0.945153C16.4484 0.699991 16.2484 0.5 16.0033 0.5H16.0065Z" fill="#3F4041"/>
<path d="M4.99673 0.5H3.99349C3.74833 0.5 3.54834 0.700001 3.54834 0.945153V3.44509C3.54834 3.96766 3.97093 4.39025 4.4935 4.39025C5.01607 4.39025 5.43866 3.96766 5.43866 3.44509V0.945153C5.43866 0.699991 5.23866 0.5 4.99351 0.5H4.99673Z" fill="#3F4041"/>
<path d="M19.0613 2.41966V2.35837C19.0613 1.82288 18.6258 1.39062 18.0936 1.39062H17.4162V3.44225C17.4162 4.4971 16.5581 5.35516 15.5033 5.35516C14.4484 5.35516 13.5936 4.4971 13.5936 3.44225V1.39062H11.9129V3.44225C11.9129 4.4971 11.0549 5.35516 10 5.35516C8.94518 5.35516 8.08712 4.4971 8.08712 3.44225V1.39062H6.40647V3.44225C6.40647 4.4971 5.55164 5.35516 4.49679 5.35516C3.44194 5.35516 2.58388 4.4971 2.58388 3.44225V1.39062H1.90647C1.37421 1.39062 0.93872 1.8229 0.93872 2.35837V2.41966C0.374196 2.7874 0 3.4229 0 4.14548V17.3843C0 18.5198 0.925816 19.4456 2.06131 19.4456H11.6419C11.2968 18.9714 11.0323 18.4359 10.8645 17.8585H2.06118C1.7999 17.8585 1.58376 17.6456 1.58376 17.3843V7.14235H18.4161V11.8003C19.029 12.139 19.5677 12.5971 19.9999 13.1455V4.1454C19.9999 3.42282 19.6259 2.78742 19.0613 2.41966Z" fill="#3F4041"/>
<path d="M4.84506 8.54492C3.93861 8.54492 3.20312 9.28041 3.20312 10.1869C3.20312 11.0933 3.93861 11.8288 4.84506 11.8288C5.75151 11.8288 6.487 11.0933 6.487 10.1869C6.487 9.28041 5.75151 8.54492 4.84506 8.54492Z" fill="#3F4041"/>
<path d="M9.99985 8.54492C9.0934 8.54492 8.35791 9.28041 8.35791 10.1869C8.35791 11.0933 9.0934 11.8288 9.99985 11.8288C10.9063 11.8288 11.6418 11.0933 11.6418 10.1869C11.6418 9.28041 10.9063 8.54492 9.99985 8.54492Z" fill="#3F4041"/>
<path d="M16.7968 10.1869C16.7968 10.5611 16.671 10.9062 16.4613 11.1804C16.2742 11.1611 16.0839 11.1514 15.8904 11.1514C15.2678 11.1514 14.6742 11.2611 14.1194 11.4611C13.7484 11.1611 13.5129 10.6998 13.5129 10.1869C13.5129 9.27719 14.2484 8.54492 15.1549 8.54492C16.0613 8.54492 16.7968 9.27719 16.7968 10.1869Z" fill="#3F4041"/>
<path d="M4.84506 13.1709C3.93861 13.1709 3.20312 13.9064 3.20312 14.8128C3.20312 15.7193 3.93861 16.4548 4.84506 16.4548C5.75151 16.4548 6.487 15.7193 6.487 14.8128C6.487 13.9064 5.75151 13.1709 4.84506 13.1709Z" fill="#3F4041"/>
<path d="M11.3194 13.8386C10.9065 14.5741 10.6678 15.4161 10.6582 16.3161C10.4549 16.4064 10.2324 16.4548 10.0001 16.4548C9.09364 16.4548 8.35815 15.7225 8.35815 14.8128C8.35815 13.9032 9.09364 13.1709 10.0001 13.1709C10.542 13.1709 11.0227 13.4322 11.3194 13.8386Z" fill="#3F4041"/>
<path d="M15.8902 12.2773C13.6257 12.2773 11.7837 14.1257 11.7837 16.3903C11.7837 18.6549 13.6256 20.4999 15.8902 20.4999C18.1548 20.4999 19.9999 18.658 19.9999 16.3903C19.9999 14.1226 18.1579 12.2773 15.8902 12.2773ZM18.0935 15.0225C17.1935 15.8129 16.4387 16.8677 15.913 18.071C15.8194 18.3194 15.5968 18.4839 15.3226 18.513C15.2968 18.513 15.2678 18.5162 15.242 18.5162C14.9968 18.5162 14.7678 18.3968 14.6355 18.1904C14.3291 17.6033 14.0065 17.1291 13.6452 16.742C13.4742 16.5581 13.5129 16.3291 13.6226 16.1839C13.7355 16.0388 13.9452 15.9452 14.1678 16.0613C14.4678 16.2194 14.7678 16.4097 15.0839 16.6452C15.8387 15.671 16.6807 14.8904 17.5904 14.3259C17.7904 14.2001 18.055 14.2582 18.184 14.4582C18.3033 14.6421 18.2614 14.884 18.0937 15.0227L18.0935 15.0225Z" fill="#3F4041"/>
</svg>
